<?xml version="1.0" standalone="no"?>
<!DOCTYPE svg PUBLIC "-//W3C//DTD SVG 20010904//EN"
 "http://www.w3.org/TR/2001/REC-SVG-20010904/DTD/svg10.dtd">
<svg version="1.0" xmlns="http://www.w3.org/2000/svg"
 width="1104.000000pt" height="1104.000000pt" viewBox="0 0 1104.000000 1104.000000"
 preserveAspectRatio="xMidYMid meet">
<metadata>
Created by potrace 1.11, written by Peter Selinger 2001-2013
</metadata>
<g transform="translate(0.000000,1104.000000) scale(0.100000,-0.100000)"
fill="#000000" stroke="none">
<path d="M0 9946 c0 -69 3 -127 7 -129 5 -3 48 -8 98 -12 140 -11 263 -26 335
-40 76 -15 96 -19 110 -20 8 -1 22 -5 30 -8 14 -5 110 -31 120 -32 15 -2 60
-19 97 -36 24 -10 48 -19 55 -19 7 0 24 -9 38 -20 14 -11 30 -20 36 -20 6 0
19 -9 29 -20 10 -11 21 -20 26 -20 9 0 80 -70 71 -70 -4 0 -1 -4 5 -8 18 -11
93 -159 93 -182 0 -10 5 -22 10 -25 6 -3 10 -19 10 -34 0 -15 3 -31 8 -35 4
-4 7 -11 8 -14 0 -4 4 -27 8 -52 12 -68 13 -72 20 -115 13 -82 17 -133 21
-235 2 -58 5 -105 5 -105 6 0 4 -78 -2 -81 -5 -3 -5 -10 -2 -16 11 -18 10
-358 -1 -358 -7 0 -7 -3 0 -8 6 -4 10 -69 10 -157 0 -88 -4 -153 -10 -157 -7
-5 -7 -8 0 -8 6 0 10 -58 10 -155 0 -97 -4 -155 -10 -155 -7 0 -7 -3 0 -8 6
-4 10 -69 10 -157 0 -88 -4 -153 -10 -157 -7 -5 -7 -8 0 -8 6 0 10 -30 10 -70
0 -38 -4 -70 -8 -70 -5 0 -5 -5 -1 -11 10 -17 11 -309 0 -309 -5 0 -2 -8 5
-17 12 -14 12 -16 0 -8 -10 6 -12 4 -6 -5 11 -17 12 -130 2 -130 -5 0 -5 -5
-1 -11 10 -17 11 -309 0 -309 -5 0 -2 -8 5 -17 12 -14 12 -16 0 -8 -10 6 -12
4 -6 -5 11 -17 12 -130 2 -130 -5 0 -5 -5 -1 -11 10 -17 11 -309 0 -309 -5 0
-2 -8 5 -17 12 -14 12 -16 0 -8 -10 6 -12 4 -6 -5 11 -17 12 -130 2 -130 -5 0
-5 -5 -1 -11 10 -17 11 -309 0 -309 -5 0 -2 -8 5 -17 12 -14 12 -16 0 -8 -10
6 -12 4 -6 -5 11 -17 12 -130 2 -130 -5 0 -5 -5 -1 -11 10 -17 11 -309 0 -309
-5 0 -2 -8 5 -17 12 -14 12 -16 0 -8 -10 6 -12 4 -6 -5 11 -17 12 -130 2 -130
-5 0 -5 -5 -1 -11 11 -19 10 -319 -1 -319 -7 0 -7 -3 0 -8 6 -4 10 -69 10
-157 0 -88 -4 -153 -10 -157 -7 -5 -7 -8 0 -8 6 0 10 -58 10 -155 0 -97 -4
-155 -10 -155 -7 0 -7 -3 0 -8 6 -4 10 -69 10 -157 0 -88 -4 -153 -10 -157 -7
-5 -7 -8 0 -8 6 0 10 -30 10 -70 0 -38 -4 -70 -8 -70 -5 0 -5 -5 -1 -11 10
-17 11 -309 0 -309 -5 0 -2 -8 5 -17 12 -14 12 -16 0 -8 -10 6 -12 4 -6 -5 11
-17 12 -130 2 -130 -5 0 -5 -5 -1 -11 11 -19 10 -199 -1 -199 -7 0 -7 -3 0 -8
10 -7 10 -49 2 -120 -2 -18 0 -35 5 -38 5 -3 6 -9 3 -14 -3 -5 -8 -65 -10
-132 -3 -68 -7 -134 -10 -148 -2 -14 -7 -54 -10 -90 -7 -73 -43 -268 -53 -284
-3 -6 -7 -17 -8 -26 -11 -73 -68 -182 -128 -245 -55 -56 -190 -133 -276 -155
-25 -7 -51 -17 -58 -22 -6 -6 -12 -8 -12 -5 0 3 -21 0 -47 -8 -42 -12 -104
-25 -178 -39 -21 -4 -90 -15 -140 -22 -16 -2 -41 -6 -55 -9 -14 -3 -56 -7 -95
-11 -38 -3 -83 -7 -100 -9 -16 -2 -38 -4 -47 -4 -16 -1 -18 -14 -18 -126 l0
-125 5520 0 5520 0 0 130 c0 116 -2 129 -17 128 -10 -1 -56 3 -103 7 -47 4
-98 9 -115 11 -16 1 -30 3 -30 4 0 1 -11 3 -25 4 -27 3 -122 16 -155 21 -11 2
-54 11 -95 20 -41 9 -84 18 -95 21 -11 2 -31 8 -45 13 -14 5 -45 15 -70 22
-25 7 -49 16 -55 19 -5 4 -26 13 -45 20 -47 18 -138 80 -178 121 -37 38 -96
137 -113 190 -6 19 -15 43 -20 54 -5 11 -11 31 -13 45 -2 14 -7 32 -10 40 -3
8 -8 32 -11 54 -3 21 -7 41 -9 45 -2 3 -7 31 -10 61 -4 30 -9 71 -11 90 -3 19
-7 80 -10 134 -3 55 -7 102 -9 103 -2 2 0 20 4 39 4 18 5 34 1 34 -3 0 -6 56
-6 125 0 77 4 125 10 125 7 0 7 3 0 8 -6 4 -10 55 -10 117 0 62 4 113 10 117
7 5 7 8 0 8 -12 0 -13 89 -1 108 4 7 4 12 -1 12 -4 0 -8 61 -8 135 0 83 4 135
10 135 7 0 7 3 0 8 -6 4 -10 55 -10 117 0 62 4 113 10 117 7 5 7 8 0 8 -12 0
-13 89 -1 108 4 7 4 12 -1 12 -4 0 -8 61 -8 135 0 83 4 135 10 135 7 0 7 3 0
8 -6 4 -10 55 -10 117 0 62 4 113 10 117 7 5 7 8 0 8 -12 0 -13 89 -1 108 4 7
4 12 -1 12 -4 0 -8 61 -8 135 0 83 4 135 10 135 7 0 7 3 0 8 -6 4 -10 55 -10
117 0 62 4 113 10 117 7 5 7 8 0 8 -12 0 -13 89 -1 108 4 7 4 12 -1 12 -4 0
-8 61 -8 135 0 83 4 135 10 135 7 0 7 3 0 8 -6 4 -10 55 -10 117 0 62 4 113
10 117 7 5 7 8 0 8 -12 0 -13 89 -1 108 4 7 4 12 -1 12 -4 0 -8 61 -8 135 0
83 4 135 10 135 7 0 7 3 0 8 -6 4 -10 55 -10 117 0 62 4 113 10 117 7 5 7 8 0
8 -12 0 -13 89 -1 108 4 7 4 12 -1 12 -4 0 -8 61 -8 135 0 83 4 135 10 135 7
0 7 3 0 8 -6 4 -10 55 -10 117 0 62 4 113 10 117 7 5 7 8 0 8 -12 0 -13 89 -1
108 4 7 4 12 -1 12 -4 0 -8 61 -8 135 0 83 4 135 10 135 7 0 7 3 0 8 -6 4 -10
55 -10 117 0 62 4 113 10 117 7 5 7 8 0 8 -12 0 -13 89 -1 108 4 7 4 12 -1 12
-4 0 -8 61 -8 135 0 83 4 135 10 135 7 0 7 3 0 8 -6 4 -10 55 -10 117 0 62 4
113 10 117 7 5 7 8 0 8 -12 0 -13 89 -1 108 4 7 4 12 -1 12 -12 0 -10 264 2
272 7 5 7 8 0 8 -11 0 -12 161 -1 179 4 6 2 11 -4 11 -6 0 -9 4 -5 9 3 5 8 63
10 128 7 147 14 226 36 358 32 200 85 345 152 417 19 21 32 40 29 43 -3 3 0 5
7 5 6 0 21 8 32 18 11 11 45 31 77 47 31 15 64 32 72 36 8 5 20 11 25 13 17 7
149 46 170 50 11 2 39 9 63 16 24 6 56 13 72 15 16 2 37 6 47 9 10 3 38 8 63
11 25 4 56 8 70 11 43 7 103 14 165 20 33 3 71 7 85 9 14 2 35 3 48 4 22 1 22
3 22 126 l0 125 -5520 0 -5520 0 0 -124z m5605 -150 c138 -17 355 -69 363 -88
2 -5 8 -6 13 -2 5 3 9 0 9 -5 0 -6 7 -11 15 -11 8 0 15 -4 15 -8 0 -4 14 -16
30 -26 46 -27 99 -119 116 -201 9 -43 5 -133 -7 -175 -15 -54 -106 -233 -131
-260 -10 -11 -18 -22 -18 -25 0 -6 -138 -196 -149 -205 -3 -3 -18 -21 -33 -42
-15 -20 -33 -42 -40 -50 -7 -7 -28 -31 -47 -53 -56 -67 -133 -154 -192 -218
l-56 -61 -59 63 c-32 35 -73 80 -91 100 -17 20 -55 61 -83 91 -104 112 -330
419 -330 450 0 5 -4 10 -9 10 -5 0 -14 12 -20 28 -6 15 -18 38 -26 52 -60 103
-104 243 -99 319 3 57 31 130 61 158 12 12 23 26 23 31 0 22 149 79 255 98
100 17 154 24 229 29 32 2 60 6 62 8 5 5 136 0 199 -7z m2423 -164 c65 -34
162 -104 162 -117 0 -6 9 -17 20 -25 11 -8 20 -20 20 -26 0 -6 8 -22 19 -35
10 -13 19 -26 19 -29 0 -3 6 -18 12 -35 14 -34 43 -130 40 -130 -1 0 3 -12 9
-26 5 -15 12 -44 16 -66 3 -21 7 -48 9 -60 4 -21 10 -59 23 -158 4 -27 8 -677
10 -1443 3 -1245 2 -1393 -12 -1398 -8 -3 -12 -10 -9 -15 3 -5 1 -9 -3 -9 -5
0 -23 -13 -41 -29 -17 -17 -40 -36 -51 -43 -17 -12 -138 -118 -167 -146 -8 -7
-14 -11 -14 -8 0 2 -13 -8 -28 -22 -90 -87 -152 -129 -152 -104 0 4 -28 37
-63 74 -34 36 -93 101 -132 144 -38 42 -85 93 -104 113 -18 20 -56 62 -85 94
-28 32 -71 80 -96 106 -25 26 -79 85 -120 131 -105 116 -171 188 -200 219 -14
15 -56 62 -95 106 -38 43 -90 99 -115 125 -68 71 -130 144 -130 153 0 4 -4 5
-10 2 -5 -3 -10 -2 -10 4 0 5 -28 39 -62 77 -35 37 -76 81 -93 99 -16 18 -59
65 -95 105 -36 39 -89 97 -117 127 -29 31 -53 57 -53 59 0 2 -10 14 -22 26
-30 31 -227 247 -308 338 -8 9 -33 36 -55 59 l-40 41 187 183 c714 698 813
794 915 887 138 126 154 140 165 140 6 0 8 3 5 6 -4 4 8 19 27 33 18 14 98 78
177 141 151 121 258 197 356 251 32 18 73 40 91 50 17 10 32 17 32 15 0 -2 21
7 48 20 26 13 52 23 57 23 6 0 34 -12 63 -27z m-4984 -625 c284 -286 351 -355
586 -607 63 -68 131 -140 150 -160 19 -21 69 -74 110 -120 41 -45 99 -106 128
-136 28 -30 52 -56 52 -58 0 -1 24 -28 53 -58 44 -47 163 -175 282 -303 17
-18 51 -55 78 -83 42 -45 60 -82 40 -82 -5 0 -31 -22 -59 -48 -50 -47 -202
-186 -253 -231 -14 -13 -49 -44 -77 -70 -28 -25 -84 -75 -124 -111 -40 -36
-86 -77 -102 -92 -16 -16 -30 -28 -32 -28 -2 0 -21 -17 -43 -37 -22 -21 -57
-53 -79 -72 -38 -33 -167 -146 -188 -166 -6 -6 -42 -37 -81 -70 -38 -33 -75
-64 -81 -70 -6 -5 -37 -32 -69 -60 -32 -27 -63 -55 -69 -60 -14 -14 -296 -256
-371 -320 -33 -27 -66 -57 -75 -65 -19 -17 -127 -109 -153 -129 -17 -14 -18
49 -14 1555 2 863 7 1585 10 1604 4 19 9 53 12 75 3 22 8 54 11 70 3 17 7 39
8 50 7 48 45 175 53 175 3 0 137 -132 297 -293z m2006 -2139 c52 -56 122 -131
155 -167 33 -36 76 -81 95 -102 19 -20 69 -74 110 -119 41 -45 100 -108 130
-140 30 -32 93 -100 140 -151 47 -51 100 -109 119 -128 18 -20 68 -73 110
-119 42 -46 101 -110 131 -142 30 -32 78 -83 105 -112 91 -100 240 -260 275
-298 42 -44 194 -209 276 -299 60 -65 118 -127 181 -193 l35 -38 -110 -107
c-60 -60 -243 -238 -407 -398 -163 -159 -300 -291 -304 -293 -4 -1 -39 32 -78
75 -39 43 -92 101 -119 130 -59 61 -233 249 -254 273 -19 21 -189 205 -252
272 -26 27 -84 90 -130 140 -46 50 -101 109 -123 133 -22 23 -83 88 -135 145
-52 57 -113 123 -135 146 -22 23 -78 84 -125 135 -47 51 -103 112 -125 135
-22 23 -70 75 -107 115 -36 41 -90 99 -120 130 -29 31 -87 94 -128 139 -41 45
-88 95 -103 111 l-28 29 168 165 c92 91 168 165 168 165 1 0 109 106 240 235
132 129 242 235 245 235 3 0 48 -46 100 -102z m-1920 -1545 c0 -7 40 -52 154
-173 18 -19 59 -64 91 -100 32 -36 97 -107 144 -159 47 -51 100 -108 116 -126
17 -18 64 -70 105 -116 41 -45 86 -94 100 -109 14 -15 59 -65 100 -110 41 -46
91 -100 110 -121 19 -20 67 -72 105 -115 39 -42 86 -94 105 -115 19 -20 67
-72 105 -115 39 -43 79 -88 90 -100 11 -12 52 -56 90 -99 39 -42 81 -89 95
-104 14 -15 63 -69 110 -121 47 -51 103 -113 126 -137 22 -24 65 -71 95 -105
30 -34 73 -81 97 -105 23 -24 42 -47 42 -52 0 -5 6 -11 13 -14 12 -5 -88 -105
-640 -644 -352 -343 -473 -459 -583 -553 -211 -182 -216 -186 -355 -290 -44
-33 -84 -63 -90 -68 -5 -4 -35 -23 -65 -41 -30 -19 -58 -39 -62 -45 -4 -6 -8
-7 -8 -2 0 5 -6 4 -12 -2 -25 -19 -89 -52 -103 -52 -8 0 -15 -4 -15 -9 0 -5
-10 -12 -22 -16 -13 -3 -39 -13 -59 -22 -35 -14 -38 -14 -99 16 -61 30 -132
80 -158 111 -88 104 -152 289 -178 515 -3 28 -8 61 -12 75 -3 14 -7 658 -9
1432 -4 1407 -4 1407 17 1428 11 11 22 20 25 20 3 0 13 8 23 18 10 9 32 28 48
42 16 14 59 50 94 80 36 30 70 60 76 65 6 6 35 30 64 55 30 25 65 55 78 68 24
22 52 29 52 15z m5257 -1610 c-2 -857 -7 -1578 -10 -1603 -9 -60 -16 -100 -22
-131 -2 -14 -6 -42 -7 -62 -2 -20 -7 -37 -12 -37 -5 0 -7 -3 -4 -6 4 -3 2 -20
-3 -37 -6 -18 -12 -43 -15 -56 -13 -63 -12 -64 -315 240 -162 162 -348 352
-414 423 -66 71 -141 151 -167 178 -27 28 -48 54 -48 60 0 5 -4 6 -10 3 -5 -3
-10 -2 -10 3 0 4 -24 33 -52 63 -29 31 -84 90 -123 131 -116 126 -236 255
-279 302 -23 24 -79 85 -126 136 -47 50 -101 109 -120 129 -152 164 -157 171
-126 188 13 7 59 49 260 234 34 31 81 73 105 95 25 21 59 53 76 69 17 17 58
53 90 80 31 28 67 59 79 70 12 11 58 52 101 90 43 39 90 81 104 94 14 13 48
42 74 65 27 22 59 50 71 61 46 40 222 194 270 235 16 14 40 35 54 48 14 12 48
41 76 65 27 23 70 61 95 84 26 24 49 43 52 43 3 0 21 15 40 33 39 36 105 94
163 141 21 17 61 52 90 78 28 26 55 48 59 48 4 0 6 -701 4 -1557z m-2794
-1099 c23 -25 62 -68 87 -94 51 -54 143 -158 186 -210 16 -19 39 -46 51 -60
13 -14 23 -28 23 -32 0 -3 6 -13 14 -21 17 -17 146 -208 177 -262 131 -231
162 -373 106 -487 -47 -95 -111 -136 -267 -172 -36 -8 -87 -18 -115 -21 -27
-4 -63 -9 -79 -11 -145 -24 -360 -18 -486 12 -14 3 -36 8 -50 10 -14 3 -47 12
-75 21 -184 58 -268 144 -290 298 -13 84 -12 95 9 180 22 84 149 294 269 443
37 45 67 87 67 91 0 5 4 11 8 13 5 2 37 37 72 78 35 41 74 86 87 100 12 14 50
54 83 90 33 36 60 68 60 73 0 18 24 3 63 -39z"/>
</g>
</svg>
